<?xml version="1.0" encoding="iso-8859-1"?>
<!-- Uploaded to: SVG Repo, www.svgrepo.com, Generator: SVG Repo Mixer Tools -->
<svg fill="#000000" height="800px" width="800px" version="1.1" id="Layer_1" xmlns="http://www.w3.org/2000/svg" xmlns:xlink="http://www.w3.org/1999/xlink" 
	 viewBox="0 0 512 512" xml:space="preserve">
<g>
	<g>
		<path d="M419.887,106.264H313.962V9.991c0-5.335-4.665-9.991-10-9.991h-96.604c-5.335,0-9.321,4.656-9.321,9.991v96.274H91.434
			c-5.335,0-9.321,4.656-9.321,9.991v96.604c0,5.335,3.986,9.33,9.321,9.33h106.604V502.67c0,5.335,3.986,9.33,9.321,9.33h96.604
			c5.335,0,10-3.995,10-9.33V222.189h105.925c5.335,0,10-3.995,10-9.33v-96.604C429.887,110.92,425.222,106.264,419.887,106.264z
			 M410.566,202.868H303.962c-5.335,0-9.321,4.656-9.321,9.991v279.821h-77.283V212.858c0-5.335-4.665-9.991-10-9.991H101.434
			v-77.283h105.925c5.335,0,10-3.995,10-9.33V19.321h77.283v96.934c0,5.335,3.986,9.33,9.321,9.33h106.604V202.868z"/>
	</g>
</g>
</svg>